<mxfile host="Electron" modified="2023-05-15T09:22:10.292Z" agent="Mozilla/5.0 (Windows NT 10.0; Win64; x64) AppleWebKit/537.36 (KHTML, like Gecko) draw.io/21.2.8 Chrome/112.0.5615.165 Electron/24.2.0 Safari/537.36" etag="NrnSiVJGX74p71sIjrxP" version="21.2.8" type="device">
  <diagram name="Page-1" id="c4acf3e9-155e-7222-9cf6-157b1a14988f">
    <mxGraphModel dx="1562" dy="909" grid="1" gridSize="10" guides="1" tooltips="1" connect="1" arrows="1" fold="1" page="1" pageScale="1" pageWidth="1654" pageHeight="1169" background="none" math="0" shadow="0">
      <root>
        <mxCell id="0" />
        <mxCell id="1" parent="0" />
        <mxCell id="KGKXIwvHeCS9UPx8KsFS-3" style="edgeStyle=orthogonalEdgeStyle;rounded=0;orthogonalLoop=1;jettySize=auto;html=1;entryX=0;entryY=0.5;entryDx=0;entryDy=0;endArrow=none;endFill=0;" parent="1" source="KGKXIwvHeCS9UPx8KsFS-1" target="KGKXIwvHeCS9UPx8KsFS-2" edge="1">
          <mxGeometry relative="1" as="geometry" />
        </mxCell>
        <mxCell id="KGKXIwvHeCS9UPx8KsFS-40" style="edgeStyle=orthogonalEdgeStyle;shape=connector;rounded=0;orthogonalLoop=1;jettySize=auto;html=1;entryX=0.5;entryY=0;entryDx=0;entryDy=0;labelBackgroundColor=default;strokeColor=default;fontFamily=Helvetica;fontSize=11;fontColor=default;endArrow=none;endFill=0;" parent="1" source="KGKXIwvHeCS9UPx8KsFS-1" target="KGKXIwvHeCS9UPx8KsFS-35" edge="1">
          <mxGeometry relative="1" as="geometry" />
        </mxCell>
        <mxCell id="KGKXIwvHeCS9UPx8KsFS-1" value="club" style="swimlane;whiteSpace=wrap;html=1;" parent="1" vertex="1">
          <mxGeometry x="742" y="170" width="200" height="200" as="geometry" />
        </mxCell>
        <mxCell id="KGKXIwvHeCS9UPx8KsFS-14" value="id" style="text;html=1;strokeColor=none;fillColor=none;align=center;verticalAlign=middle;whiteSpace=wrap;rounded=0;" parent="KGKXIwvHeCS9UPx8KsFS-1" vertex="1">
          <mxGeometry x="10" y="30" width="60" height="30" as="geometry" />
        </mxCell>
        <mxCell id="KGKXIwvHeCS9UPx8KsFS-13" value="name" style="text;html=1;strokeColor=none;fillColor=none;align=center;verticalAlign=middle;whiteSpace=wrap;rounded=0;" parent="KGKXIwvHeCS9UPx8KsFS-1" vertex="1">
          <mxGeometry x="10" y="50" width="60" height="30" as="geometry" />
        </mxCell>
        <mxCell id="KGKXIwvHeCS9UPx8KsFS-12" value="createDate" style="text;html=1;strokeColor=none;fillColor=none;align=center;verticalAlign=middle;whiteSpace=wrap;rounded=0;" parent="KGKXIwvHeCS9UPx8KsFS-1" vertex="1">
          <mxGeometry x="10" y="70" width="60" height="30" as="geometry" />
        </mxCell>
        <mxCell id="KGKXIwvHeCS9UPx8KsFS-18" value="stadiumName" style="text;html=1;strokeColor=none;fillColor=none;align=center;verticalAlign=middle;whiteSpace=wrap;rounded=0;" parent="KGKXIwvHeCS9UPx8KsFS-1" vertex="1">
          <mxGeometry x="10" y="130" width="60" height="30" as="geometry" />
        </mxCell>
        <mxCell id="KGKXIwvHeCS9UPx8KsFS-17" value="logo" style="text;html=1;strokeColor=none;fillColor=none;align=center;verticalAlign=middle;whiteSpace=wrap;rounded=0;" parent="KGKXIwvHeCS9UPx8KsFS-1" vertex="1">
          <mxGeometry x="10" y="110" width="60" height="30" as="geometry" />
        </mxCell>
        <mxCell id="KGKXIwvHeCS9UPx8KsFS-16" value="description" style="text;html=1;strokeColor=none;fillColor=none;align=center;verticalAlign=middle;whiteSpace=wrap;rounded=0;" parent="KGKXIwvHeCS9UPx8KsFS-1" vertex="1">
          <mxGeometry x="10" y="90" width="60" height="30" as="geometry" />
        </mxCell>
        <mxCell id="KGKXIwvHeCS9UPx8KsFS-2" value="effectif" style="swimlane;whiteSpace=wrap;html=1;" parent="1" vertex="1">
          <mxGeometry x="1002" y="170" width="200" height="200" as="geometry" />
        </mxCell>
        <mxCell id="KGKXIwvHeCS9UPx8KsFS-11" value="id" style="text;html=1;strokeColor=none;fillColor=none;align=center;verticalAlign=middle;whiteSpace=wrap;rounded=0;" parent="KGKXIwvHeCS9UPx8KsFS-2" vertex="1">
          <mxGeometry x="13" y="30" width="60" height="30" as="geometry" />
        </mxCell>
        <mxCell id="KGKXIwvHeCS9UPx8KsFS-10" value="lastname" style="text;html=1;strokeColor=none;fillColor=none;align=center;verticalAlign=middle;whiteSpace=wrap;rounded=0;" parent="KGKXIwvHeCS9UPx8KsFS-2" vertex="1">
          <mxGeometry x="13" y="50" width="60" height="30" as="geometry" />
        </mxCell>
        <mxCell id="KGKXIwvHeCS9UPx8KsFS-9" value="firstname" style="text;html=1;strokeColor=none;fillColor=none;align=center;verticalAlign=middle;whiteSpace=wrap;rounded=0;" parent="KGKXIwvHeCS9UPx8KsFS-2" vertex="1">
          <mxGeometry x="13" y="70" width="60" height="30" as="geometry" />
        </mxCell>
        <mxCell id="KGKXIwvHeCS9UPx8KsFS-8" value="birthDate" style="text;html=1;strokeColor=none;fillColor=none;align=center;verticalAlign=middle;whiteSpace=wrap;rounded=0;" parent="KGKXIwvHeCS9UPx8KsFS-2" vertex="1">
          <mxGeometry x="13" y="90" width="60" height="30" as="geometry" />
        </mxCell>
        <mxCell id="KGKXIwvHeCS9UPx8KsFS-19" value="club_id" style="text;html=1;strokeColor=none;fillColor=none;align=center;verticalAlign=middle;whiteSpace=wrap;rounded=0;" parent="KGKXIwvHeCS9UPx8KsFS-2" vertex="1">
          <mxGeometry x="13" y="140" width="60" height="30" as="geometry" />
        </mxCell>
        <mxCell id="KGKXIwvHeCS9UPx8KsFS-20" value="nationality" style="text;html=1;strokeColor=none;fillColor=none;align=center;verticalAlign=middle;whiteSpace=wrap;rounded=0;" parent="KGKXIwvHeCS9UPx8KsFS-2" vertex="1">
          <mxGeometry x="13" y="115" width="60" height="30" as="geometry" />
        </mxCell>
        <mxCell id="KGKXIwvHeCS9UPx8KsFS-5" style="edgeStyle=orthogonalEdgeStyle;rounded=0;orthogonalLoop=1;jettySize=auto;html=1;entryX=0;entryY=0.5;entryDx=0;entryDy=0;endArrow=none;endFill=0;" parent="1" source="KGKXIwvHeCS9UPx8KsFS-4" target="KGKXIwvHeCS9UPx8KsFS-1" edge="1">
          <mxGeometry relative="1" as="geometry" />
        </mxCell>
        <mxCell id="KGKXIwvHeCS9UPx8KsFS-4" value="ligue" style="swimlane;whiteSpace=wrap;html=1;" parent="1" vertex="1">
          <mxGeometry x="452" y="170" width="200" height="200" as="geometry" />
        </mxCell>
        <mxCell id="KGKXIwvHeCS9UPx8KsFS-6" value="id" style="text;html=1;strokeColor=none;fillColor=none;align=center;verticalAlign=middle;whiteSpace=wrap;rounded=0;" parent="KGKXIwvHeCS9UPx8KsFS-4" vertex="1">
          <mxGeometry x="10" y="30" width="60" height="30" as="geometry" />
        </mxCell>
        <mxCell id="KGKXIwvHeCS9UPx8KsFS-7" value="name" style="text;html=1;strokeColor=none;fillColor=none;align=center;verticalAlign=middle;whiteSpace=wrap;rounded=0;" parent="KGKXIwvHeCS9UPx8KsFS-4" vertex="1">
          <mxGeometry x="10" y="50" width="60" height="30" as="geometry" />
        </mxCell>
        <mxCell id="KGKXIwvHeCS9UPx8KsFS-15" value="club_id" style="text;html=1;strokeColor=none;fillColor=none;align=center;verticalAlign=middle;whiteSpace=wrap;rounded=0;" parent="KGKXIwvHeCS9UPx8KsFS-4" vertex="1">
          <mxGeometry x="10" y="80" width="60" height="30" as="geometry" />
        </mxCell>
        <mxCell id="KGKXIwvHeCS9UPx8KsFS-39" value="" style="edgeStyle=orthogonalEdgeStyle;rounded=0;orthogonalLoop=1;jettySize=auto;html=1;entryX=0;entryY=0.5;entryDx=0;entryDy=0;endArrow=none;endFill=0;" parent="1" source="KGKXIwvHeCS9UPx8KsFS-28" target="KGKXIwvHeCS9UPx8KsFS-35" edge="1">
          <mxGeometry relative="1" as="geometry" />
        </mxCell>
        <mxCell id="KGKXIwvHeCS9UPx8KsFS-28" value="user" style="swimlane;whiteSpace=wrap;html=1;" parent="1" vertex="1">
          <mxGeometry x="452" y="460" width="200" height="200" as="geometry" />
        </mxCell>
        <mxCell id="KGKXIwvHeCS9UPx8KsFS-29" value="id" style="text;html=1;strokeColor=none;fillColor=none;align=center;verticalAlign=middle;whiteSpace=wrap;rounded=0;" parent="KGKXIwvHeCS9UPx8KsFS-28" vertex="1">
          <mxGeometry x="8" y="22" width="60" height="30" as="geometry" />
        </mxCell>
        <mxCell id="KGKXIwvHeCS9UPx8KsFS-30" value="lastname" style="text;html=1;strokeColor=none;fillColor=none;align=center;verticalAlign=middle;whiteSpace=wrap;rounded=0;" parent="KGKXIwvHeCS9UPx8KsFS-28" vertex="1">
          <mxGeometry x="13" y="72" width="60" height="30" as="geometry" />
        </mxCell>
        <mxCell id="KGKXIwvHeCS9UPx8KsFS-31" value="firstname" style="text;html=1;strokeColor=none;fillColor=none;align=center;verticalAlign=middle;whiteSpace=wrap;rounded=0;" parent="KGKXIwvHeCS9UPx8KsFS-28" vertex="1">
          <mxGeometry x="13" y="96" width="60" height="30" as="geometry" />
        </mxCell>
        <mxCell id="KGKXIwvHeCS9UPx8KsFS-32" value="birthDate" style="text;html=1;strokeColor=none;fillColor=none;align=center;verticalAlign=middle;whiteSpace=wrap;rounded=0;" parent="KGKXIwvHeCS9UPx8KsFS-28" vertex="1">
          <mxGeometry x="13" y="116" width="60" height="30" as="geometry" />
        </mxCell>
        <mxCell id="KGKXIwvHeCS9UPx8KsFS-33" value="clubs_id" style="text;html=1;strokeColor=none;fillColor=none;align=center;verticalAlign=middle;whiteSpace=wrap;rounded=0;" parent="KGKXIwvHeCS9UPx8KsFS-28" vertex="1">
          <mxGeometry x="13" y="166" width="60" height="30" as="geometry" />
        </mxCell>
        <mxCell id="KGKXIwvHeCS9UPx8KsFS-34" value="nationality" style="text;html=1;strokeColor=none;fillColor=none;align=center;verticalAlign=middle;whiteSpace=wrap;rounded=0;" parent="KGKXIwvHeCS9UPx8KsFS-28" vertex="1">
          <mxGeometry x="13" y="141" width="60" height="30" as="geometry" />
        </mxCell>
        <mxCell id="KGKXIwvHeCS9UPx8KsFS-35" value="clubs" style="swimlane;whiteSpace=wrap;html=1;" parent="1" vertex="1">
          <mxGeometry x="742" y="460" width="200" height="200" as="geometry" />
        </mxCell>
        <mxCell id="KGKXIwvHeCS9UPx8KsFS-37" value="club_id" style="text;html=1;strokeColor=none;fillColor=none;align=center;verticalAlign=middle;whiteSpace=wrap;rounded=0;" parent="KGKXIwvHeCS9UPx8KsFS-35" vertex="1">
          <mxGeometry x="10" y="27" width="60" height="30" as="geometry" />
        </mxCell>
        <mxCell id="KGKXIwvHeCS9UPx8KsFS-38" value="user_id" style="text;html=1;strokeColor=none;fillColor=none;align=center;verticalAlign=middle;whiteSpace=wrap;rounded=0;" parent="KGKXIwvHeCS9UPx8KsFS-35" vertex="1">
          <mxGeometry x="10" y="54" width="60" height="30" as="geometry" />
        </mxCell>
        <mxCell id="oS4LF9jmFPn_qmRV7Ytx-5" style="edgeStyle=orthogonalEdgeStyle;rounded=0;orthogonalLoop=1;jettySize=auto;html=1;entryX=0;entryY=0.5;entryDx=0;entryDy=0;endArrow=none;endFill=0;" edge="1" parent="1" source="oS4LF9jmFPn_qmRV7Ytx-1" target="KGKXIwvHeCS9UPx8KsFS-4">
          <mxGeometry relative="1" as="geometry" />
        </mxCell>
        <mxCell id="oS4LF9jmFPn_qmRV7Ytx-1" value="country" style="swimlane;whiteSpace=wrap;html=1;" vertex="1" parent="1">
          <mxGeometry x="180" y="170" width="200" height="200" as="geometry" />
        </mxCell>
        <mxCell id="oS4LF9jmFPn_qmRV7Ytx-2" value="id" style="text;html=1;strokeColor=none;fillColor=none;align=center;verticalAlign=middle;whiteSpace=wrap;rounded=0;" vertex="1" parent="oS4LF9jmFPn_qmRV7Ytx-1">
          <mxGeometry x="10" y="30" width="60" height="30" as="geometry" />
        </mxCell>
        <mxCell id="oS4LF9jmFPn_qmRV7Ytx-3" value="name" style="text;html=1;strokeColor=none;fillColor=none;align=center;verticalAlign=middle;whiteSpace=wrap;rounded=0;" vertex="1" parent="oS4LF9jmFPn_qmRV7Ytx-1">
          <mxGeometry x="10" y="50" width="60" height="30" as="geometry" />
        </mxCell>
        <mxCell id="oS4LF9jmFPn_qmRV7Ytx-4" value="ligue_id" style="text;html=1;strokeColor=none;fillColor=none;align=center;verticalAlign=middle;whiteSpace=wrap;rounded=0;" vertex="1" parent="oS4LF9jmFPn_qmRV7Ytx-1">
          <mxGeometry x="10" y="80" width="60" height="30" as="geometry" />
        </mxCell>
        <mxCell id="oS4LF9jmFPn_qmRV7Ytx-6" value="email" style="text;html=1;strokeColor=none;fillColor=none;align=center;verticalAlign=middle;whiteSpace=wrap;rounded=0;" vertex="1" parent="1">
          <mxGeometry x="459" y="499" width="60" height="30" as="geometry" />
        </mxCell>
        <mxCell id="oS4LF9jmFPn_qmRV7Ytx-7" value="passwd" style="text;html=1;strokeColor=none;fillColor=none;align=center;verticalAlign=middle;whiteSpace=wrap;rounded=0;" vertex="1" parent="1">
          <mxGeometry x="460" y="516" width="60" height="30" as="geometry" />
        </mxCell>
      </root>
    </mxGraphModel>
  </diagram>
</mxfile>
